{
  "accessors": [
    {
      "name": "Cone-Mesh_positions",
      "componentType": 5126,
      "count": 318,
      "min": [
        -3.9802238941192627,
        3.8901169300079346,
        2.7940518856048584
      ],
      "max": [
        -2.9283270835876465,
        4.946770191192627,
        4.340031147003174
      ],
      "type": "VEC3",
      "bufferView": 0,
      "byteOffset": 0
    },
    {
      "name": "Cone-Mesh_normals",
      "componentType": 5126,
      "count": 318,
      "min": [
        -0.9930999875068665,
        -0.9965999722480774,
        -0.9879000186920166
      ],
      "max": [
        0.9930999875068665,
        0.9965999722480774,
        1
      ],
      "type": "VEC3",
      "bufferView": 0,
      "byteOffset": 3816
    },
    {
      "name": "Cone-Mesh_0_indices",
      "componentType": 5123,
      "count": 1884,
      "min": [
        0
      ],
      "max": [
        317
      ],
      "type": "SCALAR",
      "bufferView": 1,
      "byteOffset": 0
    }
  ],
  "asset": {
    "generator": "obj2gltf",
    "version": "2.0"
  },
  "buffers": [
    {
      "name": "broken_undy",
      "byteLength": 11400,
      "uri": "data:application/octet-stream;base64,"
    }
  ],
  "bufferViews": [
    {
      "name": "bufferView_0",
      "buffer": 0,
      "byteLength": 7632,
      "byteOffset": 0,
      "byteStride": 12,
      "target": 34962
    },
    {
      "name": "bufferView_1",
      "buffer": 0,
      "byteLength": 3768,
      "byteOffset": 7632,
      "target": 34963
    }
  ],
  "materials": [
    {
      "name": "Material.002",
      "pbrMetallicRoughness": {
        "baseColorFactor": [
          0.64,
          0.64,
          0.64,
          1
        ],
        "metallicFactor": 0,
        "roughnessFactor": 0.903921569
      },
      "emissiveFactor": [
        0,
        0,
        0
      ],
      "alphaMode": "OPAQUE",
      "doubleSided": false
    }
  ],
  "meshes": [
    {
      "name": "Cone-Mesh",
      "primitives": [
        {
          "attributes": {
            "POSITION": 0,
            "NORMAL": 1
          },
          "indices": 2,
          "material": 0,
          "mode": 4
        }
      ]
    }
  ],
  "nodes": [
    {
      "name": "Cone",
      "mesh": 0
    }
  ],
  "scene": 0,
  "scenes": [
    {
      "nodes": [
        0
      ]
    }
  ]
}
